<?xml version="1.0" standalone="no"?>
<!DOCTYPE svg PUBLIC "-//W3C//DTD SVG 20010904//EN"
 "http://www.w3.org/TR/2001/REC-SVG-20010904/DTD/svg10.dtd">
<svg version="1.0" xmlns="http://www.w3.org/2000/svg"
 width="200.000000pt" height="200.000000pt" viewBox="0 0 200.000000 200.000000"
 preserveAspectRatio="xMidYMid meet">

<g transform="translate(0.000000,200.000000) scale(0.100000,-0.100000)"
fill="#000000" stroke="none">
<path d="M747 1840 c-513 -86 -837 -600 -692 -1095 161 -551 787 -791 1283
-494 82 49 207 164 222 205 27 69 -26 144 -101 144 -35 0 -48 -8 -123 -78 -92
-85 -189 -141 -291 -167 -79 -20 -242 -20 -320 0 -192 50 -344 177 -431 360
-150 312 -13 700 299 849 118 57 179 70 302 69 107 -1 196 -23 287 -69 55 -28
150 -103 194 -153 29 -32 37 -36 82 -36 59 0 98 29 108 79 8 47 -10 82 -78
148 -192 189 -482 281 -741 238z"/>
<path d="M1860 1353 c-19 -20 -34 -41 -32 -46 1 -5 -1 -6 -6 -3 -10 6 -78 -64
-74 -77 1 -5 -1 -6 -6 -3 -10 6 -78 -64 -74 -77 1 -5 -1 -6 -6 -3 -4 2 -28
-15 -52 -40 l-43 -44 -491 0 c-270 0 -496 -4 -502 -8 -24 -16 -33 -48 -21 -73
l13 -24 524 -3 525 -2 167 167 c92 92 164 171 161 176 -3 6 -1 7 5 3 6 -3 16
2 21 13 15 27 14 31 -6 31 -15 0 -15 2 -4 9 12 8 12 12 2 25 -23 28 -64 19
-101 -21z m54 -8 c-4 -8 -10 -12 -15 -9 -11 6 -2 24 11 24 5 0 7 -7 4 -15z
m-38 -60 c4 -8 10 -12 15 -9 5 3 14 2 20 -1 11 -8 -17 -45 -34 -45 -5 0 1 9
14 20 13 10 19 19 12 20 -6 0 -15 -5 -18 -10 -4 -6 -11 -8 -16 -4 -5 3 -6 10
-3 16 4 6 0 14 -7 19 -11 7 -11 9 -1 9 7 0 15 -7 18 -15z m-51 -5 c3 -6 -1 -7
-9 -4 -18 7 -21 14 -7 14 6 0 13 -4 16 -10z m-25 -25 c-7 -8 -17 -15 -22 -15
-11 0 14 29 26 30 5 0 3 -7 -4 -15z m23 -87 c-9 -10 -20 -18 -26 -18 -5 0 1 9
14 20 13 10 19 19 12 20 -6 0 -15 -5 -18 -10 -4 -6 -11 -8 -16 -4 -5 3 -7 10
-3 15 3 5 9 7 14 4 5 -3 12 0 16 6 4 8 9 7 15 -2 5 -8 2 -20 -8 -31z m-103 7
c-7 -8 -17 -15 -22 -15 -11 0 14 29 26 30 5 0 3 -7 -4 -15z m35 -64 c2 -5 -5
-17 -18 -27 l-22 -19 19 23 c11 12 14 22 8 22 -6 0 -14 -5 -17 -10 -4 -6 -11
-8 -16 -4 -5 3 -7 9 -5 13 6 10 45 11 51 2z m-120 -11 c-3 -5 -16 -15 -28 -21
-19 -9 -19 -8 3 10 28 23 34 26 25 11z m-15 -49 c0 -6 -5 -13 -12 -17 -6 -4
-8 -3 -4 4 3 5 0 13 -6 15 -8 3 -6 6 5 6 9 1 17 -3 17 -8z m31 -24 l-24 -22
19 27 c10 14 21 24 23 22 3 -3 -6 -15 -18 -27z m14 -17 c-10 -11 -23 -20 -28
-20 -5 0 -16 -8 -24 -17 -13 -16 -13 -16 -3 5 6 12 17 22 24 22 8 0 19 7 26
15 7 8 15 15 18 15 3 0 -3 -9 -13 -20z"/>
<path d="M835 820 c-35 -4 -40 -9 -43 -33 -7 -58 -19 -57 452 -57 l432 0 59
-60 c59 -60 89 -72 113 -48 28 28 13 62 -56 131 l-67 67 -425 2 c-234 2 -443
1 -465 -2z"/>
</g>
</svg>
