<?xml version="1.0" encoding="UTF-8" standalone="no"?>
<!-- Created with Inkscape (http://www.inkscape.org/) -->

<svg
   version="1.1"
   id="svg2"
   width="585.82666"
   height="170.08"
   viewBox="0 0 585.82666 170.08"
   sodipodi:docname="cieverix_logo_purple.eps"
   xmlns:inkscape="http://www.inkscape.org/namespaces/inkscape"
   xmlns:sodipodi="http://sodipodi.sourceforge.net/DTD/sodipodi-0.dtd"
   xmlns="http://www.w3.org/2000/svg"
   xmlns:svg="http://www.w3.org/2000/svg">
  <defs
     id="defs6" />
  <sodipodi:namedview
     id="namedview4"
     pagecolor="#ffffff"
     bordercolor="#000000"
     borderopacity="0.25"
     inkscape:showpageshadow="2"
     inkscape:pageopacity="0.0"
     inkscape:pagecheckerboard="0"
     inkscape:deskcolor="#d1d1d1" />
  <g
     id="g8"
     inkscape:groupmode="layer"
     inkscape:label="ink_ext_XXXXXX"
     transform="matrix(1.3333333,0,0,-1.3333333,0,170.08)">
    <g
       id="g10"
       transform="scale(0.1)">
      <path
         d="m 913.793,775.227 v -0.739 c 0,-12.886 -10.449,-23.328 -23.34,-23.328 H 546.75 c -12.891,0 -23.328,10.442 -23.328,23.328 v 0.739 c 0,12.886 10.437,23.328 23.328,23.328 h 343.703 c 12.891,0 23.34,-10.442 23.34,-23.328"
         style="fill:#e87ac3;fill-opacity:1;fill-rule:nonzero;stroke:none"
         id="path12" />
      <path
         d="m 1198.07,456.168 -74.4,74.395 c -6.26,6.261 -14.48,9.335 -22.69,9.273 -0.08,0.004 -0.17,0.027 -0.25,0.027 H 562.563 c -17.532,0 -31.739,-14.211 -31.739,-31.742 0,-17.527 14.207,-31.738 31.739,-31.738 h 525.517 l 65.1,-65.102 c 12.4,-12.398 32.5,-12.398 44.89,0 v 0 c 12.39,12.399 12.39,32.489 0,44.887"
         style="fill:#874aaa;fill-opacity:1;fill-rule:nonzero;stroke:none"
         id="path14" />
      <path
         d="m 1267.02,882.773 c -15.02,15.016 -39.36,15.016 -54.38,0 L 1016.04,686.168 H 418.07 c -21.183,0 -38.359,-17.172 -38.359,-38.359 0,-21.188 17.176,-38.36 38.359,-38.36 h 614.39 c 2.08,0 4.09,0.293 6.08,0.61 0.32,0.054 0.65,0.039 0.97,0.097 8.47,1.578 15.87,5.973 21.4,12.125 l 206.11,206.114 c 15.01,15.019 15.01,39.367 0,54.378"
         style="fill:#b55eb6;fill-opacity:1;fill-rule:nonzero;stroke:none"
         id="path16" />
      <path
         d="m 4174.74,640.191 156.81,167.106 c 10.71,11.414 10.13,29.355 -1.27,40.066 h -0.01 c -11.41,10.715 -29.35,10.145 -40.06,-1.273 L 4135.86,681.617 3981.53,846.09 c -10.72,11.418 -28.66,11.988 -40.07,1.273 -11.42,-10.711 -11.99,-28.652 -1.28,-40.066 L 4096.99,640.191 3940.18,473.094 c -10.71,-11.418 -10.14,-29.356 1.28,-40.071 11.41,-10.71 29.35,-10.14 40.07,1.274 l 154.33,164.473 154.35,-164.473 c 10.71,-11.414 28.65,-11.984 40.06,-1.274 h 0.01 c 11.4,10.715 11.98,28.653 1.27,40.071 l -156.81,167.097"
         style="fill:#47389b;fill-opacity:1;fill-rule:nonzero;stroke:none"
         id="path18" />
      <path
         d="m 3840.87,425.449 v 0 c -15.65,0 -28.35,12.692 -28.35,28.348 v 372.195 c 0,15.656 12.7,28.344 28.35,28.344 v 0 c 15.66,0 28.34,-12.688 28.34,-28.344 V 453.797 c 0,-15.656 -12.68,-28.348 -28.34,-28.348"
         style="fill:#5b3ea0;fill-opacity:1;fill-rule:nonzero;stroke:none"
         id="path20" />
      <path
         d="m 2922.47,851.535 c -14.19,6.617 -31.05,0.477 -37.67,-13.711 L 2737.02,520.91 2589.3,837.707 c -6.62,14.188 -23.49,20.328 -37.68,13.711 -14.19,-6.617 -20.32,-23.48 -13.71,-37.672 l 173.43,-371.922 c 0.32,-0.683 0.77,-1.261 1.14,-1.906 0.21,-0.371 0.42,-0.73 0.65,-1.09 0.81,-1.293 1.69,-2.492 2.67,-3.613 0.17,-0.188 0.34,-0.375 0.51,-0.567 1.14,-1.23 2.36,-2.343 3.68,-3.339 0.11,-0.082 0.23,-0.164 0.33,-0.246 1.48,-1.083 3.04,-2.008 4.68,-2.782 0.03,-0.011 0.05,-0.031 0.08,-0.047 0.03,-0.015 0.05,-0.015 0.08,-0.031 1.7,-0.785 3.45,-1.394 5.26,-1.836 0.05,-0.008 0.09,-0.023 0.14,-0.031 1.77,-0.422 3.56,-0.664 5.4,-0.738 0.04,0 0.07,-0.004 0.11,-0.004 1.74,-0.067 3.5,0.047 5.26,0.32 0.09,0.012 0.18,0.02 0.26,0.035 1.6,0.258 3.17,0.68 4.74,1.227 0.24,0.086 0.49,0.164 0.72,0.254 0.66,0.246 1.32,0.383 1.97,0.683 0.75,0.352 1.39,0.844 2.1,1.25 0.34,0.196 0.67,0.391 0.99,0.594 1.22,0.773 2.36,1.606 3.42,2.531 0.35,0.297 0.67,0.598 1.01,0.91 0.98,0.946 1.89,1.934 2.72,2.997 0.34,0.433 0.66,0.871 0.98,1.328 0.73,1.054 1.37,2.14 1.95,3.281 0.18,0.332 0.4,0.605 0.57,0.941 l 173.42,371.922 c 6.62,14.188 0.48,31.051 -13.71,37.668"
         style="fill:#9e54b0;fill-opacity:1;fill-rule:nonzero;stroke:none"
         id="path22" />
      <path
         d="m 1971.85,425.449 v 0 c -15.66,0 -28.34,12.692 -28.34,28.348 v 495.664 c 0,15.652 12.68,28.344 28.34,28.344 v 0 c 15.66,0 28.35,-12.692 28.35,-28.344 V 453.797 c 0,-15.656 -12.69,-28.348 -28.35,-28.348"
         style="fill:#cf6cbd;fill-opacity:1;fill-rule:nonzero;stroke:none"
         id="path24" />
      <path
         d="m 1861.01,533.629 -0.97,0.559 c -11.39,6.574 -26.04,4.375 -34.5,-5.704 -7.08,-8.437 -15.06,-16.07 -23.63,-22.996 -1.41,-1.136 -2.81,-2.285 -4.24,-3.371 -3.75,-2.844 -7.62,-5.535 -11.6,-8.058 -1.45,-0.914 -2.93,-1.762 -4.4,-2.637 -3.55,-2.106 -7.18,-4.098 -10.89,-5.942 -1.05,-0.527 -2.08,-1.109 -3.15,-1.617 -4.56,-2.152 -9.27,-4.043 -14.05,-5.789 -1.41,-0.515 -2.82,-1.023 -4.24,-1.5 -4.92,-1.652 -9.93,-3.136 -15.05,-4.336 -0.96,-0.226 -1.93,-0.386 -2.9,-0.597 -4.81,-1.039 -9.69,-1.875 -14.63,-2.493 -0.99,-0.128 -1.96,-0.289 -2.95,-0.398 -5.5,-0.59 -11.08,-0.887 -16.72,-0.941 -1.95,-0.02 -3.9,-0.008 -5.87,0.035 -1.5,0.039 -3,0.062 -4.49,0.14 -2.42,0.121 -4.86,0.332 -7.31,0.559 -1.48,0.137 -2.96,0.234 -4.43,0.41 -1.7,0.199 -3.41,0.496 -5.1,0.746 -73.58,11.094 -131.68,69.258 -142.64,142.875 -0.15,1.047 -0.31,2.09 -0.44,3.137 -0.27,2.07 -0.48,4.164 -0.66,6.258 -0.16,1.683 -0.31,3.363 -0.41,5.043 -0.11,1.789 -0.18,3.59 -0.24,5.398 -0.06,1.801 -0.09,3.598 -0.09,5.383 0,1.789 0.03,3.586 0.09,5.387 0.06,1.808 0.13,3.609 0.24,5.402 0.1,1.672 0.25,3.359 0.41,5.043 0.18,2.094 0.39,4.184 0.66,6.254 0.13,1.047 0.29,2.09 0.44,3.137 10.96,73.632 69.08,131.8 142.66,142.879 1.69,0.246 3.39,0.546 5.07,0.742 1.48,0.176 2.98,0.277 4.48,0.414 2.43,0.226 4.85,0.437 7.25,0.554 1.51,0.079 3.02,0.102 4.53,0.141 1.96,0.047 3.9,0.055 5.84,0.035 5.65,-0.054 11.23,-0.347 16.74,-0.945 0.98,-0.106 1.94,-0.266 2.92,-0.391 4.96,-0.625 9.85,-1.457 14.67,-2.504 0.96,-0.203 1.92,-0.367 2.87,-0.589 5.13,-1.204 10.14,-2.688 15.07,-4.34 1.41,-0.481 2.82,-0.985 4.23,-1.496 4.77,-1.746 9.49,-3.637 14.05,-5.789 1.07,-0.504 2.09,-1.09 3.14,-1.614 3.72,-1.851 7.35,-3.843 10.91,-5.953 1.47,-0.867 2.94,-1.719 4.39,-2.629 3.98,-2.527 7.85,-5.222 11.6,-8.058 1.43,-1.094 2.83,-2.235 4.24,-3.368 8.56,-6.929 16.55,-14.562 23.63,-23 8.46,-10.074 23.11,-12.281 34.5,-5.703 l 0.97,0.559 c 14.97,8.641 18.87,28.836 7.71,42.043 -7.68,9.101 -16.13,17.531 -25.13,25.32 -0.27,0.242 -0.44,0.539 -0.72,0.774 -0.47,0.41 -1,0.757 -1.48,1.164 -4.08,3.445 -8.29,6.746 -12.63,9.902 -1.39,1.024 -2.85,1.977 -4.28,2.969 -3.48,2.422 -7.04,4.746 -10.66,6.972 -1.49,0.915 -2.97,1.852 -4.48,2.731 -4.82,2.805 -9.73,5.457 -14.76,7.914 -1.17,0.57 -2.38,1.074 -3.56,1.625 -4.26,1.984 -8.58,3.828 -12.97,5.551 -1.52,0.597 -3.03,1.199 -4.56,1.765 -5.44,1.993 -10.96,3.832 -16.58,5.414 -0.81,0.231 -1.64,0.399 -2.45,0.622 -5.02,1.351 -10.12,2.507 -15.28,3.519 -1.57,0.309 -3.12,0.606 -4.7,0.879 -5.94,1.035 -11.93,1.91 -18.02,2.469 -0.3,0.031 -0.61,0.031 -0.9,0.058 -5.83,0.516 -11.74,0.739 -17.69,0.801 -0.82,0.012 -1.62,0.113 -2.44,0.113 -1.4,0 -2.79,-0.086 -4.19,-0.113 -1.8,-0.031 -3.61,-0.07 -5.42,-0.144 -2.78,-0.118 -5.53,-0.305 -8.28,-0.52 -1.34,-0.101 -2.64,-0.125 -3.98,-0.246 -0.43,-0.047 -0.85,-0.137 -1.29,-0.184 -5.43,-0.55 -10.79,-1.308 -16.1,-2.23 -1.71,-0.301 -3.41,-0.641 -5.11,-0.981 -4.92,-0.976 -9.81,-2.07 -14.61,-3.359 -1.08,-0.293 -2.14,-0.598 -3.21,-0.898 -4.95,-1.407 -9.8,-3.012 -14.6,-4.743 -1.18,-0.418 -2.35,-0.828 -3.51,-1.269 -5.34,-2.027 -10.6,-4.242 -15.73,-6.649 -0.54,-0.25 -1.06,-0.515 -1.59,-0.769 -39.73,-18.984 -73.04,-49.18 -95.89,-86.508 -0.39,-0.648 -0.8,-1.285 -1.19,-1.933 -2.83,-4.715 -5.48,-9.547 -7.96,-14.477 -0.67,-1.313 -1.29,-2.652 -1.93,-3.98 -1.96,-4.102 -3.82,-8.262 -5.53,-12.497 -0.77,-1.843 -1.48,-3.699 -2.18,-5.57 -1.47,-3.887 -2.82,-7.82 -4.07,-11.801 -0.65,-2.101 -1.3,-4.199 -1.9,-6.328 -1.31,-4.644 -2.49,-9.34 -3.51,-14.101 -0.41,-1.95 -0.75,-3.918 -1.11,-5.879 -0.79,-4.293 -1.47,-8.625 -2.02,-13 -0.12,-0.93 -0.33,-1.836 -0.43,-2.766 -0.05,-0.406 -0.06,-0.801 -0.11,-1.207 -0.14,-1.418 -0.22,-2.851 -0.35,-4.273 -0.22,-2.625 -0.49,-5.254 -0.62,-7.86 -0.12,-2.121 -0.13,-4.265 -0.19,-6.394 -0.05,-2.032 -0.16,-4.071 -0.16,-6.094 0,-2.016 0.11,-4.063 0.16,-6.094 0.06,-2.129 0.07,-4.269 0.19,-6.39 0.13,-2.606 0.4,-5.235 0.62,-7.86 0.13,-1.422 0.21,-2.859 0.35,-4.273 0.05,-0.406 0.06,-0.801 0.11,-1.207 0.1,-0.934 0.31,-1.836 0.43,-2.77 0.55,-4.375 1.23,-8.703 2.02,-12.996 0.36,-1.965 0.7,-3.93 1.11,-5.879 1.02,-4.761 2.2,-9.457 3.51,-14.101 0.6,-2.129 1.25,-4.223 1.9,-6.328 1.25,-3.981 2.6,-7.915 4.07,-11.801 0.7,-1.871 1.41,-3.727 2.18,-5.574 1.71,-4.231 3.57,-8.391 5.53,-12.493 0.64,-1.328 1.26,-2.668 1.93,-3.98 2.48,-4.934 5.13,-9.758 7.96,-14.477 0.39,-0.652 0.8,-1.285 1.19,-1.929 22.85,-37.336 56.16,-67.524 95.89,-86.516 0.53,-0.254 1.05,-0.516 1.59,-0.766 5.13,-2.406 10.39,-4.625 15.73,-6.648 1.16,-0.441 2.33,-0.852 3.51,-1.27 4.8,-1.73 9.65,-3.332 14.6,-4.742 1.07,-0.304 2.13,-0.605 3.21,-0.894 4.8,-1.293 9.69,-2.387 14.61,-3.364 1.7,-0.336 3.4,-0.679 5.11,-0.976 5.31,-0.93 10.67,-1.684 16.1,-2.238 0.44,-0.043 0.86,-0.137 1.29,-0.176 1.34,-0.125 2.64,-0.149 3.98,-0.246 2.75,-0.215 5.5,-0.407 8.28,-0.524 1.81,-0.074 3.62,-0.113 5.42,-0.148 1.4,-0.024 2.79,-0.11 4.19,-0.11 0.82,0 1.62,0.102 2.44,0.11 5.95,0.066 11.86,0.289 17.69,0.808 0.29,0.024 0.6,0.024 0.9,0.051 6.09,0.563 12.08,1.438 18.02,2.473 1.58,0.273 3.13,0.574 4.7,0.879 5.15,1.011 10.24,2.168 15.26,3.515 0.82,0.223 1.66,0.395 2.48,0.625 5.62,1.582 11.13,3.422 16.57,5.418 1.53,0.563 3.04,1.164 4.56,1.758 4.39,1.727 8.71,3.57 12.97,5.555 1.18,0.551 2.39,1.055 3.56,1.625 5.03,2.457 9.94,5.105 14.75,7.91 1.52,0.883 3,1.82 4.5,2.738 3.61,2.223 7.17,4.547 10.65,6.965 1.43,0.988 2.89,1.953 4.29,2.977 4.33,3.148 8.54,6.457 12.62,9.898 0.48,0.406 1.01,0.758 1.48,1.16 0.28,0.235 0.45,0.535 0.72,0.778 9,7.793 17.45,16.214 25.13,25.316 11.16,13.211 7.26,33.406 -7.71,42.047"
         style="fill:#e87ac3;fill-opacity:1;fill-rule:nonzero;stroke:none"
         id="path26" />
      <path
         d="m 987.992,389.949 -2.297,1.328 c -27.109,15.649 -61.972,10.403 -82.097,-13.57 -16.856,-20.074 -35.84,-38.234 -56.231,-54.711 -3.34,-2.703 -6.672,-5.43 -10.097,-8.027 -8.918,-6.758 -18.118,-13.16 -27.598,-19.168 -3.43,-2.176 -6.953,-4.199 -10.449,-6.274 -8.45,-5.007 -17.071,-9.746 -25.91,-14.136 -2.508,-1.25 -4.95,-2.641 -7.5,-3.852 -10.86,-5.117 -22.059,-9.617 -33.426,-13.769 -3.352,-1.231 -6.711,-2.43 -10.098,-3.571 -11.719,-3.929 -23.625,-7.461 -35.812,-10.32 -2.274,-0.527 -4.61,-0.918 -6.895,-1.418 -11.434,-2.473 -23.047,-4.461 -34.812,-5.941 -2.344,-0.29 -4.661,-0.68 -7.012,-0.942 -13.078,-1.406 -26.36,-2.109 -39.785,-2.238 -4.629,-0.039 -9.289,-0.031 -13.965,0.09 -3.567,0.09 -7.141,0.148 -10.695,0.332 -5.762,0.277 -11.571,0.789 -17.383,1.316 -3.516,0.332 -7.059,0.563 -10.547,0.981 -4.031,0.472 -8.094,1.191 -12.149,1.781 -175.046,26.398 -313.308,164.785 -339.363,339.949 -0.351,2.484 -0.742,4.977 -1.055,7.457 -0.636,4.93 -1.132,9.906 -1.593,14.887 -0.36,4.008 -0.703,8.019 -0.946,12.004 -0.265,4.261 -0.441,8.547 -0.566,12.843 -0.137,4.29 -0.227,8.563 -0.227,12.813 0,4.258 0.09,8.531 0.227,12.812 0.125,4.297 0.301,8.586 0.566,12.848 0.243,3.988 0.586,7.992 0.946,12.004 0.461,4.984 0.957,9.957 1.593,14.891 0.313,2.476 0.704,4.965 1.055,7.453 26.055,175.195 164.356,313.599 339.453,339.959 4.012,0.59 8.047,1.3 12.039,1.77 3.528,0.42 7.102,0.66 10.657,0.99 5.769,0.53 11.543,1.02 17.265,1.31 3.574,0.18 7.176,0.25 10.781,0.33 4.649,0.12 9.278,0.13 13.887,0.09 13.438,-0.13 26.727,-0.83 39.813,-2.24 2.343,-0.26 4.64,-0.65 6.964,-0.94 11.797,-1.48 23.438,-3.47 34.891,-5.95 2.277,-0.49 4.59,-0.88 6.836,-1.41 12.199,-2.85 24.121,-6.39 35.852,-10.33 3.379,-1.13 6.726,-2.33 10.058,-3.55 11.375,-4.16 22.586,-8.66 33.457,-13.79 2.539,-1.19 4.961,-2.58 7.481,-3.83 8.836,-4.401 17.468,-9.144 25.937,-14.155 3.485,-2.071 7,-4.09 10.43,-6.266 9.48,-6.008 18.68,-12.414 27.617,-19.172 3.418,-2.597 6.738,-5.316 10.078,-8.019 20.391,-16.477 39.375,-34.637 56.231,-54.715 20.125,-23.969 54.988,-29.219 82.097,-13.57 l 2.297,1.328 c 35.618,20.562 44.878,68.617 18.348,100.035 -18.281,21.664 -38.379,41.704 -59.813,60.254 -0.625,0.57 -1.027,1.27 -1.679,1.84 -1.145,0.97 -2.395,1.8 -3.535,2.77 -9.727,8.19 -19.739,16.05 -30.04,23.55 -3.339,2.44 -6.789,4.71 -10.187,7.07 -8.301,5.76 -16.746,11.29 -25.371,16.58 -3.555,2.18 -7.059,4.4 -10.664,6.5 -11.453,6.68 -23.145,12.99 -35.117,18.83 -2.793,1.36 -5.664,2.56 -8.485,3.87 -10.109,4.72 -20.402,9.11 -30.851,13.21 -3.614,1.41 -7.207,2.85 -10.86,4.19 -12.937,4.75 -26.054,9.13 -39.441,12.89 -1.926,0.54 -3.899,0.95 -5.832,1.47 -11.953,3.22 -24.082,5.98 -36.348,8.38 -3.73,0.73 -7.441,1.45 -11.179,2.1 -14.133,2.45 -28.391,4.54 -42.872,5.87 -0.714,0.07 -1.445,0.08 -2.16,0.14 -13.867,1.22 -27.929,1.76 -42.078,1.91 -1.953,0.02 -3.848,0.26 -5.812,0.26 -3.34,0 -6.629,-0.2 -9.961,-0.27 -4.297,-0.08 -8.582,-0.17 -12.899,-0.34 -6.601,-0.29 -13.164,-0.73 -19.707,-1.24 -3.164,-0.24 -6.289,-0.3 -9.465,-0.59 -1.035,-0.1 -2.031,-0.32 -3.066,-0.43 -12.91,-1.31 -25.672,-3.11 -38.301,-5.31 -4.082,-0.71 -8.125,-1.52 -12.187,-2.33 -11.707,-2.32 -23.309,-4.93 -34.746,-8 -2.547,-0.69 -5.086,-1.41 -7.625,-2.14 -11.77,-3.34 -23.332,-7.16 -34.758,-11.27 -2.781,-1.01 -5.574,-1.98 -8.348,-3.03 -12.715,-4.82 -25.195,-10.09 -37.433,-15.82 -1.258,-0.59 -2.5,-1.22 -3.758,-1.82 -94.532,-45.18 -173.809,-117.02 -228.164,-205.844 -0.95,-1.531 -1.914,-3.047 -2.844,-4.594 -6.719,-11.227 -13.035,-22.711 -18.934,-34.441 -1.582,-3.133 -3.066,-6.309 -4.59,-9.473 -4.667,-9.758 -9.0816,-19.656 -13.1753,-29.723 -1.7969,-4.394 -3.5039,-8.812 -5.1836,-13.265 -3.4688,-9.239 -6.6797,-18.606 -9.6484,-28.082 -1.5743,-4.996 -3.1172,-9.993 -4.543,-15.051 -3.1133,-11.047 -5.918,-22.231 -8.3281,-33.559 -0.9883,-4.629 -1.7891,-9.304 -2.6485,-13.98 -1.8945,-10.215 -3.5039,-20.52 -4.8242,-30.93 -0.2734,-2.219 -0.7695,-4.363 -1.0234,-6.59 -0.1094,-0.961 -0.1367,-1.902 -0.2344,-2.863 -0.3633,-3.367 -0.5469,-6.785 -0.8516,-10.168 -0.5468,-6.246 -1.1523,-12.504 -1.4843,-18.707 -0.2735,-5.039 -0.3008,-10.137 -0.4375,-15.211 -0.1289,-4.832 -0.3633,-9.691 -0.3633,-14.496 0,-4.805 0.2344,-9.66 0.3633,-14.496 0.1367,-5.074 0.164,-10.172 0.4375,-15.211 0.332,-6.199 0.9375,-12.453 1.4843,-18.703 0.3047,-3.387 0.4883,-6.797 0.8516,-10.168 0.0977,-0.957 0.125,-1.902 0.2344,-2.867 0.2539,-2.227 0.75,-4.368 1.0234,-6.586 1.3203,-10.41 2.9297,-20.719 4.8242,-30.934 0.8594,-4.672 1.6602,-9.348 2.6485,-13.976 2.4101,-11.329 5.2148,-22.512 8.3281,-33.563 1.4258,-5.059 2.9687,-10.051 4.543,-15.047 2.9687,-9.472 6.1796,-18.844 9.6484,-28.082 1.6797,-4.453 3.3867,-8.871 5.1836,-13.265 4.0937,-10.071 8.5083,-19.965 13.1753,-29.723 1.524,-3.164 3.008,-6.344 4.59,-9.473 5.899,-11.734 12.215,-23.219 18.934,-34.441 0.93,-1.551 1.894,-3.059 2.844,-4.598 C 187.953,267.828 267.23,196 361.762,150.82 c 1.258,-0.601 2.5,-1.23 3.758,-1.82 12.238,-5.738 24.718,-11.012 37.433,-15.82 2.774,-1.051 5.567,-2.032 8.348,-3.032 11.426,-4.109 22.988,-7.929 34.758,-11.277 2.539,-0.723 5.078,-1.441 7.625,-2.133 11.437,-3.066 23.039,-5.679 34.746,-8 4.062,-0.808 8.105,-1.617 12.187,-2.328 12.629,-2.199 25.391,-4 38.301,-5.308 1.035,-0.114 2.031,-0.332 3.066,-0.43 3.176,-0.301 6.301,-0.352 9.465,-0.594 6.543,-0.5077 13.106,-0.9569 19.707,-1.2382 4.317,-0.1679 8.602,-0.2617 12.899,-0.3398 3.332,-0.0586 6.621,-0.2695 9.961,-0.2695 1.964,0 3.859,0.2383 5.812,0.2578 14.149,0.1523 28.211,0.6914 42.078,1.9217 0.715,0.059 1.446,0.059 2.16,0.129 14.481,1.332 28.739,3.422 42.872,5.871 3.738,0.649 7.449,1.371 11.179,2.102 12.246,2.398 24.367,5.148 36.301,8.367 1.953,0.519 3.953,0.941 5.898,1.48 13.379,3.77 26.493,8.141 39.422,12.891 3.653,1.34 7.246,2.77 10.86,4.191 10.449,4.09 20.742,8.489 30.851,13.207 2.821,1.313 5.692,2.512 8.485,3.872 11.972,5.839 23.652,12.152 35.109,18.82 3.602,2.101 7.129,4.332 10.684,6.519 8.613,5.289 17.058,10.813 25.339,16.563 3.411,2.359 6.868,4.637 10.227,7.09 10.281,7.5 20.301,15.347 30.02,23.547 1.14,0.961 2.39,1.793 3.535,2.761 0.652,0.571 1.054,1.27 1.687,1.852 21.426,18.539 41.524,38.578 59.805,60.242 26.53,31.414 17.27,79.477 -18.348,100.035"
         style="fill:#47389b;fill-opacity:1;fill-rule:nonzero;stroke:none"
         id="path28" />
      <path
         d="m 3733.78,848.859 c -69.55,15.055 -145.61,-2.543 -203.13,-56.113 -5.28,-4.918 -10.22,-10.082 -14.92,-15.406 v 48.652 c 0,15.656 -12.69,28.344 -28.34,28.344 h -0.01 c -15.66,0 -28.34,-12.688 -28.34,-28.344 V 453.797 c 0,-15.656 12.68,-28.348 28.34,-28.348 h 0.01 c 15.65,0 28.34,12.692 28.34,28.348 v 177.129 c 1.09,49.656 23.81,98.398 66.22,131.074 41.4,31.902 92.8,41.652 140.15,31.277 12.85,-2.816 25.8,4.379 30.81,16.543 l 0.43,1.032 c 6.59,15.976 -2.66,34.355 -19.56,38.007"
         style="fill:#7243a5;fill-opacity:1;fill-rule:nonzero;stroke:none"
         id="path30" />
      <path
         d="m 2271.31,805.895 c 1.68,0.246 3.38,0.546 5.06,0.742 1.48,0.176 2.99,0.277 4.47,0.414 2.43,0.226 4.86,0.437 7.27,0.554 1.49,0.079 3.02,0.102 4.53,0.141 1.95,0.047 3.9,0.055 5.83,0.035 5.64,-0.054 11.24,-0.347 16.74,-0.945 0.13,-0.012 0.26,-0.039 0.4,-0.051 1.73,-0.191 3.4,-0.539 5.11,-0.781 4.06,-0.574 8.11,-1.203 12.08,-2.063 0.26,-0.054 0.51,-0.105 0.78,-0.156 1.88,-0.414 3.71,-0.957 5.56,-1.433 3.9,-1.016 7.78,-2.063 11.57,-3.332 1.84,-0.614 3.65,-1.325 5.47,-2 3.86,-1.438 7.66,-2.989 11.38,-4.696 1.57,-0.715 3.12,-1.476 4.67,-2.246 3.69,-1.84 7.3,-3.816 10.84,-5.918 1.46,-0.867 2.95,-1.719 4.38,-2.629 3.99,-2.527 7.86,-5.222 11.61,-8.058 1.44,-1.094 2.83,-2.235 4.23,-3.368 8.58,-6.929 16.56,-14.562 23.64,-23 0.36,-0.417 0.78,-0.746 1.15,-1.14 18.54,-22.473 31.24,-49.852 36.28,-79.824 h -335.12 c 12.12,72.132 69.53,128.832 142.07,139.754 z m 191.09,-272.266 -0.96,0.559 c -11.4,6.574 -26.05,4.375 -34.51,-5.704 -7.08,-8.437 -15.06,-16.07 -23.64,-22.996 -1.4,-1.136 -2.8,-2.285 -4.23,-3.371 -3.68,-2.781 -7.47,-5.406 -11.35,-7.883 -0.54,-0.339 -1.09,-0.664 -1.63,-1 -1,-0.605 -2.01,-1.211 -3.02,-1.812 -3.56,-2.106 -7.18,-4.098 -10.89,-5.942 -0.68,-0.343 -1.36,-0.695 -2.04,-1.046 -0.85,-0.411 -1.72,-0.782 -2.57,-1.172 -4.12,-1.883 -8.31,-3.621 -12.59,-5.188 -1.4,-0.515 -2.82,-1.023 -4.24,-1.5 -4.58,-1.539 -9.26,-2.883 -14.01,-4.035 -0.77,-0.187 -1.53,-0.383 -2.3,-0.559 -0.55,-0.109 -1.1,-0.222 -1.64,-0.339 -4.81,-1.039 -9.68,-1.875 -14.63,-2.493 -0.41,-0.054 -0.83,-0.109 -1.24,-0.168 -0.82,-0.097 -1.64,-0.183 -2.46,-0.273 -5.26,-0.535 -10.58,-0.844 -15.97,-0.898 -1.65,-0.016 -3.31,0 -4.97,0.031 -0.67,0.012 -1.33,0.019 -1.99,0.039 -1.14,0.027 -2.27,0.047 -3.4,0.105 -2.31,0.114 -4.62,0.317 -6.95,0.528 -0.25,0.023 -0.49,0.039 -0.75,0.062 -1.35,0.125 -2.7,0.215 -4.04,0.379 -1.7,0.199 -3.41,0.496 -5.11,0.746 -72.52,10.938 -129.91,67.633 -142.03,139.75 h 366.02 v 0 c 1.95,0 3.86,0.196 5.71,0.578 12.92,2.641 22.63,14.071 22.63,27.766 v 0 0 c 0,68.785 -30.67,130.371 -79.02,171.961 -0.1,0.121 -0.19,0.238 -0.32,0.344 -0.2,0.168 -0.4,0.324 -0.61,0.48 -14.31,12.176 -30.17,22.574 -47.23,30.926 -0.16,0.074 -0.29,0.168 -0.45,0.246 -0.63,0.301 -1.27,0.586 -1.91,0.867 -11.08,5.27 -22.64,9.68 -34.62,13.117 -0.38,0.114 -0.76,0.262 -1.15,0.371 -0.8,0.231 -1.63,0.399 -2.45,0.622 -0.11,0.027 -0.22,0.043 -0.33,0.078 -11.61,3.097 -23.58,5.316 -35.85,6.543 -0.6,0.062 -1.2,0.195 -1.81,0.246 -0.3,0.031 -0.6,0.031 -0.9,0.058 -0.55,0.047 -1.12,0.032 -1.66,0.075 -5.7,0.461 -11.43,0.753 -17.24,0.781 -0.41,0.031 -0.82,0.058 -1.23,0.058 -0.15,0 -0.3,-0.007 -0.45,-0.015 -1.18,0 -2.37,-0.071 -3.56,-0.09 -0.05,-0.008 -0.12,-0.008 -0.18,-0.008 -1.81,-0.031 -3.6,-0.07 -5.42,-0.144 -0.46,-0.02 -0.9,-0.063 -1.36,-0.09 -2.49,-0.117 -5,-0.266 -7.51,-0.469 -1.13,-0.066 -2.25,-0.105 -3.4,-0.207 -0.43,-0.047 -0.85,-0.137 -1.29,-0.184 -0.38,-0.039 -0.75,-0.117 -1.13,-0.156 -15.87,-1.648 -32,-4.836 -48.3,-9.91 -67.87,-21.129 -121.76,-75.02 -142.89,-142.895 -4.76,-15.281 -7.89,-30.425 -9.63,-45.339 -0.09,-0.477 -0.17,-0.95 -0.22,-1.438 -0.05,-0.406 -0.06,-0.801 -0.1,-1.207 -0.16,-1.418 -0.23,-2.851 -0.36,-4.273 -0.05,-0.594 -0.09,-1.192 -0.14,-1.786 -0.13,-1.609 -0.29,-3.222 -0.38,-4.82 -0.03,-0.422 -0.08,-0.84 -0.11,-1.254 -0.1,-2.121 -0.12,-4.265 -0.18,-6.394 -0.02,-0.996 -0.04,-1.985 -0.07,-2.981 -0.02,-0.871 -0.07,-1.75 -0.07,-2.625 0,-0.16 -0.01,-0.324 -0.01,-0.488 0,-2.016 0.1,-4.063 0.15,-6.094 0.06,-2.129 0.08,-4.269 0.18,-6.39 0.01,-0.086 0.02,-0.176 0.03,-0.262 0.03,-0.692 0.12,-1.359 0.16,-2.043 0.14,-1.852 0.28,-3.699 0.44,-5.555 0.13,-1.422 0.2,-2.859 0.36,-4.273 0.04,-0.406 0.05,-0.801 0.1,-1.207 0.05,-0.406 0.11,-0.805 0.18,-1.207 0.65,-5.383 1.53,-10.692 2.54,-15.957 0.27,-1.492 0.53,-2.996 0.84,-4.481 0.17,-0.765 0.4,-1.508 0.57,-2.269 0.69,-3.067 1.45,-6.106 2.26,-9.121 0.25,-0.899 0.42,-1.825 0.68,-2.711 0.19,-0.703 0.42,-1.391 0.62,-2.09 1.74,-5.938 3.71,-11.774 5.91,-17.5 0.53,-1.371 1.06,-2.75 1.61,-4.113 0.17,-0.415 0.37,-0.805 0.54,-1.215 1.42,-3.446 2.94,-6.844 4.52,-10.2 0.17,-0.355 0.31,-0.722 0.48,-1.078 0.39,-0.816 0.79,-1.632 1.18,-2.449 2.65,-5.355 5.49,-10.59 8.53,-15.691 0.06,-0.102 0.11,-0.215 0.17,-0.317 0.39,-0.652 0.8,-1.285 1.2,-1.929 0.14,-0.235 0.31,-0.446 0.44,-0.676 2.6,-4.211 5.33,-8.328 8.19,-12.352 0.24,-0.336 0.47,-0.679 0.72,-1.015 9.32,-12.973 19.99,-24.907 31.79,-35.629 0.37,-0.34 0.74,-0.672 1.12,-1.004 3.69,-3.313 7.49,-6.508 11.4,-9.578 0.24,-0.192 0.47,-0.387 0.72,-0.578 12.61,-9.817 26.29,-18.313 40.83,-25.321 0.23,-0.113 0.45,-0.25 0.68,-0.363 0.53,-0.254 1.06,-0.516 1.58,-0.766 0.29,-0.136 0.6,-0.238 0.88,-0.375 10.25,-4.742 20.89,-8.746 31.9,-11.933 0.36,-0.11 0.71,-0.246 1.07,-0.352 1.07,-0.304 2.14,-0.605 3.2,-0.894 0.48,-0.133 0.98,-0.215 1.46,-0.336 4.24,-1.11 8.52,-2.09 12.84,-2.961 0.11,-0.02 0.21,-0.047 0.31,-0.067 0.08,-0.019 0.17,-0.031 0.25,-0.05 6.53,-1.289 13.15,-2.293 19.87,-3.012 0.37,-0.039 0.72,-0.113 1.09,-0.152 0.44,-0.043 0.86,-0.137 1.29,-0.176 1.34,-0.125 2.66,-0.149 3.99,-0.246 0.06,-0.008 0.11,-0.012 0.16,-0.016 2.4,-0.18 4.8,-0.336 7.21,-0.449 0.3,-0.016 0.61,-0.043 0.91,-0.059 1.82,-0.074 3.61,-0.113 5.42,-0.148 1.4,-0.024 2.78,-0.11 4.19,-0.11 v 0 c 0.01,0 0.01,0 0.01,0 7.08,0 14.08,0.336 21,0.969 0,0 0.01,0 0.02,0 1.2,0.11 2.34,0.352 3.52,0.485 6.46,0.695 12.85,1.625 19.13,2.855 0.03,0.008 0.05,0.008 0.07,0.012 1.08,0.215 2.13,0.511 3.2,0.738 4.86,1.023 9.72,2.055 14.46,3.383 0.02,0.008 0.04,0.015 0.07,0.019 1.79,0.504 3.5,1.168 5.26,1.719 5.33,1.641 10.6,3.399 15.76,5.414 0.04,0.016 0.08,0.031 0.12,0.043 1.13,0.445 2.21,0.973 3.34,1.434 4.39,1.804 8.78,3.613 13.03,5.676 0.05,0.027 0.11,0.046 0.16,0.07 1.95,0.957 3.82,2.07 5.74,3.082 4.48,2.348 8.92,4.766 13.22,7.394 0.09,0.059 0.19,0.114 0.29,0.172 1.6,0.989 3.14,2.067 4.72,3.09 3.36,2.18 6.73,4.328 9.96,6.676 0.09,0.059 0.18,0.117 0.26,0.176 2.35,1.711 4.58,3.574 6.85,5.375 2.28,1.793 4.64,3.468 6.84,5.343 0.03,0.024 0.05,0.055 0.08,0.079 0.11,0.086 0.22,0.171 0.33,0.261 0.27,0.235 0.45,0.535 0.71,0.778 9.01,7.793 17.45,16.214 25.14,25.316 11.15,13.211 7.26,33.406 -7.71,42.047"
         style="fill:#b55eb6;fill-opacity:1;fill-rule:nonzero;stroke:none"
         id="path32" />
      <path
         d="m 3150.05,805.895 c 1.68,0.246 3.38,0.546 5.06,0.742 1.48,0.176 2.99,0.277 4.47,0.414 2.43,0.226 4.86,0.437 7.27,0.554 1.49,0.079 3.02,0.102 4.53,0.141 1.95,0.047 3.9,0.055 5.83,0.035 5.64,-0.054 11.24,-0.347 16.74,-0.945 0.13,-0.012 0.26,-0.039 0.4,-0.051 1.73,-0.191 3.4,-0.539 5.11,-0.781 4.06,-0.574 8.11,-1.203 12.08,-2.063 0.26,-0.054 0.51,-0.105 0.78,-0.156 1.88,-0.414 3.71,-0.957 5.56,-1.433 3.9,-1.016 7.78,-2.063 11.57,-3.332 1.84,-0.614 3.65,-1.325 5.47,-2 3.86,-1.438 7.66,-2.989 11.38,-4.696 1.57,-0.715 3.12,-1.476 4.67,-2.246 3.69,-1.84 7.3,-3.816 10.84,-5.918 1.46,-0.867 2.95,-1.719 4.38,-2.629 3.99,-2.527 7.86,-5.222 11.61,-8.058 1.44,-1.094 2.83,-2.235 4.23,-3.368 8.58,-6.929 16.56,-14.562 23.64,-23 0.36,-0.417 0.78,-0.746 1.15,-1.14 18.54,-22.473 31.24,-49.852 36.28,-79.824 h -335.12 c 12.12,72.132 69.53,128.832 142.07,139.754 z m 191.09,-272.266 -0.96,0.559 c -11.4,6.574 -26.05,4.375 -34.51,-5.704 -7.08,-8.437 -15.06,-16.07 -23.64,-22.996 -1.4,-1.136 -2.8,-2.285 -4.23,-3.371 -3.68,-2.781 -7.47,-5.406 -11.35,-7.883 -0.54,-0.339 -1.09,-0.664 -1.63,-1 -1,-0.605 -2.01,-1.211 -3.02,-1.812 -3.56,-2.106 -7.18,-4.098 -10.89,-5.942 -0.68,-0.343 -1.36,-0.695 -2.04,-1.046 -0.85,-0.411 -1.72,-0.782 -2.57,-1.172 -4.12,-1.883 -8.31,-3.621 -12.59,-5.188 -1.4,-0.515 -2.82,-1.023 -4.24,-1.5 -4.58,-1.539 -9.26,-2.883 -14.01,-4.035 -0.77,-0.187 -1.53,-0.383 -2.3,-0.559 -0.55,-0.109 -1.1,-0.222 -1.64,-0.339 -4.81,-1.039 -9.68,-1.875 -14.63,-2.493 -0.41,-0.054 -0.83,-0.109 -1.24,-0.168 -0.82,-0.097 -1.64,-0.183 -2.46,-0.273 -5.26,-0.535 -10.58,-0.844 -15.97,-0.898 -1.65,-0.016 -3.31,0 -4.97,0.031 -0.67,0.012 -1.33,0.019 -1.99,0.039 -1.14,0.027 -2.27,0.047 -3.4,0.105 -2.31,0.114 -4.62,0.317 -6.95,0.528 -0.25,0.023 -0.49,0.039 -0.75,0.062 -1.35,0.125 -2.7,0.215 -4.04,0.379 -1.7,0.199 -3.41,0.496 -5.11,0.746 -72.52,10.938 -129.91,67.633 -142.03,139.75 H 3374 v 0 c 1.95,0 3.86,0.196 5.71,0.578 12.92,2.641 22.63,14.071 22.63,27.766 v 0 0 c 0,68.785 -30.67,130.371 -79.02,171.961 -0.09,0.121 -0.19,0.238 -0.32,0.344 -0.19,0.168 -0.4,0.324 -0.6,0.48 -14.32,12.176 -30.18,22.574 -47.24,30.926 -0.16,0.074 -0.29,0.168 -0.45,0.246 -0.63,0.301 -1.27,0.586 -1.9,0.867 -11.09,5.27 -22.65,9.68 -34.63,13.117 -0.38,0.114 -0.76,0.262 -1.15,0.371 -0.8,0.231 -1.63,0.399 -2.45,0.622 -0.1,0.027 -0.22,0.043 -0.33,0.078 -11.61,3.097 -23.58,5.316 -35.85,6.543 -0.6,0.062 -1.2,0.195 -1.81,0.246 -0.3,0.031 -0.6,0.031 -0.9,0.058 -0.55,0.047 -1.12,0.032 -1.66,0.075 -5.7,0.461 -11.43,0.753 -17.24,0.781 -0.41,0.031 -0.82,0.058 -1.23,0.058 -0.15,0 -0.3,-0.007 -0.45,-0.015 -1.18,0 -2.37,-0.071 -3.55,-0.09 -0.06,-0.008 -0.13,-0.008 -0.19,-0.008 -1.81,-0.031 -3.6,-0.07 -5.42,-0.144 -0.46,-0.02 -0.9,-0.063 -1.36,-0.09 -2.49,-0.117 -5,-0.266 -7.51,-0.469 -1.13,-0.066 -2.25,-0.105 -3.4,-0.207 -0.43,-0.047 -0.85,-0.137 -1.28,-0.184 -0.39,-0.039 -0.76,-0.117 -1.14,-0.156 -15.87,-1.648 -32,-4.836 -48.3,-9.91 -67.87,-21.129 -121.76,-75.02 -142.89,-142.895 -4.76,-15.281 -7.89,-30.425 -9.63,-45.339 -0.09,-0.477 -0.17,-0.95 -0.22,-1.438 -0.05,-0.406 -0.06,-0.801 -0.1,-1.207 -0.16,-1.418 -0.23,-2.851 -0.36,-4.273 -0.05,-0.594 -0.09,-1.192 -0.14,-1.786 -0.13,-1.609 -0.29,-3.222 -0.38,-4.82 -0.03,-0.422 -0.08,-0.84 -0.11,-1.254 -0.1,-2.121 -0.12,-4.265 -0.18,-6.394 -0.02,-0.996 -0.04,-1.985 -0.07,-2.981 -0.02,-0.871 -0.07,-1.75 -0.07,-2.625 0,-0.16 -0.01,-0.324 -0.01,-0.488 0,-2.016 0.1,-4.063 0.15,-6.094 0.06,-2.129 0.08,-4.269 0.18,-6.39 0.01,-0.086 0.02,-0.176 0.03,-0.262 0.03,-0.692 0.12,-1.359 0.16,-2.043 0.14,-1.852 0.28,-3.699 0.44,-5.555 0.13,-1.422 0.2,-2.859 0.36,-4.273 0.04,-0.406 0.05,-0.801 0.1,-1.207 0.05,-0.406 0.11,-0.805 0.18,-1.207 0.65,-5.383 1.53,-10.692 2.54,-15.957 0.27,-1.492 0.53,-2.996 0.84,-4.481 0.17,-0.765 0.4,-1.508 0.57,-2.269 0.69,-3.067 1.45,-6.106 2.26,-9.121 0.25,-0.899 0.42,-1.825 0.68,-2.711 0.19,-0.703 0.42,-1.391 0.62,-2.09 1.74,-5.938 3.71,-11.774 5.91,-17.5 0.53,-1.371 1.06,-2.75 1.61,-4.113 0.17,-0.415 0.37,-0.805 0.54,-1.215 1.43,-3.446 2.94,-6.844 4.52,-10.2 0.17,-0.355 0.31,-0.722 0.48,-1.078 0.39,-0.816 0.79,-1.632 1.18,-2.449 2.65,-5.355 5.49,-10.59 8.53,-15.691 0.06,-0.102 0.11,-0.215 0.17,-0.317 0.39,-0.652 0.8,-1.285 1.2,-1.929 0.14,-0.235 0.31,-0.446 0.44,-0.676 2.6,-4.211 5.33,-8.328 8.19,-12.352 0.24,-0.336 0.47,-0.679 0.72,-1.015 9.33,-12.973 19.99,-24.907 31.79,-35.629 0.37,-0.34 0.74,-0.672 1.12,-1.004 3.69,-3.313 7.49,-6.508 11.4,-9.578 0.24,-0.192 0.47,-0.387 0.72,-0.578 12.61,-9.817 26.29,-18.313 40.83,-25.321 0.23,-0.113 0.45,-0.25 0.68,-0.363 0.53,-0.254 1.06,-0.516 1.58,-0.766 0.29,-0.136 0.6,-0.238 0.88,-0.375 10.25,-4.742 20.89,-8.746 31.9,-11.933 0.36,-0.11 0.71,-0.246 1.07,-0.352 1.07,-0.304 2.14,-0.605 3.2,-0.894 0.48,-0.133 0.98,-0.215 1.46,-0.336 4.24,-1.11 8.52,-2.09 12.84,-2.961 0.11,-0.02 0.21,-0.047 0.31,-0.067 0.08,-0.019 0.17,-0.031 0.25,-0.05 6.53,-1.289 13.15,-2.293 19.87,-3.012 0.37,-0.039 0.72,-0.113 1.1,-0.152 0.43,-0.043 0.85,-0.137 1.28,-0.176 1.34,-0.125 2.66,-0.149 3.99,-0.246 0.06,-0.008 0.11,-0.012 0.16,-0.016 2.4,-0.18 4.8,-0.336 7.21,-0.449 0.3,-0.016 0.61,-0.043 0.91,-0.059 1.82,-0.074 3.61,-0.113 5.42,-0.148 1.4,-0.024 2.78,-0.11 4.19,-0.11 v 0 c 0.01,0 0.01,0 0.01,0 7.08,0 14.08,0.336 21,0.969 0,0 0.01,0 0.02,0 1.2,0.11 2.34,0.352 3.52,0.485 6.46,0.695 12.85,1.625 19.13,2.855 0.03,0.008 0.05,0.008 0.07,0.012 1.08,0.215 2.13,0.511 3.2,0.738 4.86,1.023 9.72,2.055 14.46,3.383 0.02,0.008 0.04,0.015 0.07,0.019 1.79,0.504 3.5,1.168 5.26,1.719 5.33,1.641 10.6,3.399 15.76,5.414 0.04,0.016 0.08,0.031 0.12,0.043 1.13,0.445 2.21,0.973 3.34,1.434 4.39,1.804 8.79,3.613 13.03,5.676 0.05,0.027 0.11,0.046 0.16,0.07 1.95,0.957 3.82,2.07 5.74,3.082 4.48,2.348 8.92,4.766 13.22,7.394 0.09,0.059 0.19,0.114 0.29,0.172 1.6,0.989 3.14,2.067 4.72,3.09 3.36,2.18 6.73,4.328 9.97,6.676 0.08,0.059 0.17,0.117 0.25,0.176 2.35,1.711 4.58,3.574 6.85,5.375 2.28,1.793 4.64,3.468 6.84,5.343 0.03,0.024 0.05,0.055 0.08,0.079 0.11,0.086 0.22,0.171 0.33,0.261 0.27,0.235 0.45,0.535 0.71,0.778 9.01,7.793 17.45,16.214 25.14,25.316 11.15,13.211 7.26,33.406 -7.71,42.047"
         style="fill:#874aaa;fill-opacity:1;fill-rule:nonzero;stroke:none"
         id="path34" />
      <path
         d="m 3840.87,977.805 v 0 c -19.33,0 -35.02,-15.676 -35.02,-35.016 0,-19.336 15.69,-35.008 35.02,-35.008 v 0 c 19.34,0 35.01,15.672 35.01,35.008 0,19.34 -15.67,35.016 -35.01,35.016"
         style="fill:#5b3ea0;fill-opacity:1;fill-rule:nonzero;stroke:none"
         id="path36" />
    </g>
  </g>
</svg>
